<?xml version="1.0" encoding="utf-8"?><!-- Uploaded to: SVG Repo, www.svgrepo.com, Generator: SVG Repo Mixer Tools -->
<svg width="800px" height="800px" viewBox="0 0 24 24" fill="none" xmlns="http://www.w3.org/2000/svg">

<path d="M7 8.5H7.5" stroke="#fff" stroke-width="1.5" stroke-linecap="round" />
<path d="M7 12H7.5" stroke="#fff" stroke-width="1.5" stroke-linecap="round"/>
<path d="M7 15.5H7.5" stroke="#fff" stroke-width="1.5" stroke-linecap="round"/>
<path d="M10.5 8.5H17" stroke="#fff" stroke-width="1.5" stroke-linecap="round"/>
<path d="M10.5 12L17 12" stroke="#fff" stroke-width="1.5" stroke-linecap="round"/>
<path d="M10.5 15.5H17" stroke="#fff" stroke-width="1.5" stroke-linecap="round"/>
<path d="M2 12C2 7.28595 2 4.92893 3.46447 3.46447C4.92893 2 7.28595 2 12 2C16.714 2 19.0711 2 20.5355 3.46447C22 4.92893 22 7.28595 22 12C22 16.714 22 19.0711 20.5355 20.5355C19.0711 22 16.714 22 12 22C7.28595 22 4.92893 22 3.46447 20.5355C2 19.0711 2 16.714 2 12Z" stroke="#fff" stroke-width="1.5"/>

</svg>