<?xml version="1.0" encoding="utf-8"?><!-- Uploaded to: SVG Repo, www.svgrepo.com, Generator: SVG Repo Mixer Tools -->
<svg width="800px" height="800px" viewBox="0 0 24 24" fill="none" xmlns="http://www.w3.org/2000/svg">
<path fill-rule="evenodd" clip-rule="evenodd" d="M13.7231 1.52045C14.5124 1.12581 15.4354 1.09869 16.2465 1.4463L21.1818 3.5614C22.2848 4.03414 23 5.11875 23 6.31884V18.967C23 21.1207 20.7978 22.5728 18.8182 21.7244L15.4587 20.2846C15.1883 20.1687 14.8806 20.1778 14.6175 20.3093L10.2769 22.4796C9.48759 22.8743 8.56458 22.9014 7.75348 22.5538L2.81824 20.4387C1.71519 19.966 1 18.8813 1 17.6813V5.03313C1 2.87938 3.20215 1.42729 5.18176 2.27569L8.54132 3.7155C8.81169 3.83137 9.11936 3.82233 9.38246 3.69079L13.7231 1.52045ZM16 3.51659V18.3532C16.0831 18.3805 16.1654 18.4115 16.2465 18.4463L19.6061 19.8861C20.2659 20.1689 21 19.6849 21 18.967V6.31884C21 5.91881 20.7616 5.55727 20.3939 5.39969L16 3.51659ZM14 18.399V3.61808L10.2769 5.47964C10.1862 5.52497 10.0938 5.56545 10 5.60107V20.382L13.7231 18.5205C13.8138 18.4751 13.9062 18.4346 14 18.399ZM7.75348 5.55379C7.83462 5.58856 7.91687 5.61959 8 5.64687V20.4835L3.60608 18.6004C3.2384 18.4428 3 18.0813 3 17.6813V5.03313C3 4.31521 3.73405 3.83118 4.39392 4.11398L7.75348 5.55379Z" fill="gray"/>
</svg>